<svg width="95" height="37" viewBox="0 0 95 37" fill="none" xmlns="http://www.w3.org/2000/svg">
<path d="M92.5 20.9102C93.8807 20.9102 95 19.7909 95 18.4102C95 17.0294 93.8807 15.9102 92.5 15.9102V18.4102V20.9102ZM0.732233 16.6424C-0.244078 17.6187 -0.244078 19.2016 0.732233 20.1779L16.6421 36.0878C17.6184 37.0641 19.2014 37.0641 20.1777 36.0878C21.154 35.1115 21.154 33.5286 20.1777 32.5523L6.03553 18.4102L20.1777 4.26802C21.154 3.29171 21.154 1.7088 20.1777 0.732487C19.2014 -0.243824 17.6184 -0.243824 16.6421 0.732487L0.732233 16.6424ZM92.5 18.4102V15.9102L2.5 15.9102V18.4102V20.9102L92.5 20.9102V18.4102Z" fill="black"/>
</svg>
