<svg width="45" height="42" viewBox="0 0 45 42" fill="none" xmlns="http://www.w3.org/2000/svg">
<path d="M22.0706 0C1.60272 0 0 1.51128 0 20.8113V21.1887C0 40.4887 1.60272 42 22.0706 42H22.4708C42.9386 42 44.5414 40.4887 44.5414 21.1887V21C44.5414 1.5246 42.9245 0 22.2707 0H22.0706ZM17.8165 4.2H26.7248C39.1173 4.2 40.0872 5.11455 40.0872 16.8V25.2C40.0872 36.8854 39.1173 37.8 26.7248 37.8H17.8165C5.42402 37.8 4.45414 36.8854 4.45414 25.2V16.8C4.45414 5.11455 5.42402 4.2 17.8165 4.2ZM33.3995 8.4C32.169 8.40315 31.1756 9.3459 31.179 10.5062C31.1823 11.6664 32.1821 12.6031 33.4125 12.6C34.643 12.5968 35.6364 11.6541 35.6331 10.4938C35.6297 9.3336 34.63 8.39685 33.3995 8.4ZM22.2446 10.5C16.0956 10.5136 11.1209 15.2265 11.1353 21.0246C11.1498 26.8227 16.1478 31.5136 22.2968 31.5C28.4457 31.4863 33.4205 26.7735 33.406 20.9754C33.3915 15.1773 28.3935 10.4863 22.2446 10.5ZM22.2555 14.7C25.9446 14.6916 28.943 17.507 28.9519 20.9856C28.9597 24.4643 25.975 27.2916 22.2859 27.3C18.5968 27.3084 15.5984 24.4941 15.5895 21.0144C15.5806 17.5357 18.5663 14.7084 22.2555 14.7Z" fill="black"/>
</svg>
