<svg width="59" height="42" viewBox="0 0 59 42" fill="none" xmlns="http://www.w3.org/2000/svg">
<path d="M28.4333 0.00373129C25.3847 -0.029019 23.0839 0.134741 21.1569 1.2647C20.366 1.72323 19.8052 2.31278 19.3738 3.00057C19.1437 3.34447 18.928 3.65562 18.8273 4.37617C18.7698 4.72007 18.7267 5.29324 19.043 5.91553C19.3594 6.5542 20.0353 6.97998 20.4954 7.06186C20.8406 7.11099 21.5739 7.45489 21.7034 7.65141C22.0053 8.14269 22.1204 8.50297 22.1635 8.69948C22.2067 8.896 22.1923 8.76499 22.1923 8.76499V8.9615C22.1923 8.9615 22.3073 11.0249 22.2354 13.1538C22.1923 14.2019 22.106 15.2991 21.9622 16.036C21.8184 16.7729 21.4589 16.9531 21.9766 16.6092C21.6171 16.8548 21.7465 16.9531 21.3007 16.6911C20.8406 16.4454 19.647 15.2991 18.0796 12.0894C16.5121 8.86325 15.3761 7.19287 15.1173 6.8326C15.0166 6.50508 14.7721 5.83365 13.9381 5.09672C12.8596 4.14691 11.7523 4.13053 11.7523 4.13053L11.6516 4.11415H3.61315C3.61315 4.11415 3.15299 4.13053 2.62092 4.26154C2.08886 4.39255 1.32671 4.53994 0.607703 5.55526H0.593324C-0.140065 6.61971 -0.010644 7.5859 0.0468765 8.17544C0.118777 8.78136 0.276959 9.25627 0.276959 9.25627L0.305719 9.35453L0.34886 9.45279C0.34886 9.45279 6.48918 24.3715 13.8231 33.4603C20.7111 42.0086 28.6921 41.8449 28.6921 41.8449H33.2219L33.3225 41.8285C33.3225 41.8285 34.7749 41.9104 35.9972 40.3546C36.6156 39.5522 36.7594 38.7989 36.8313 38.2421C36.9176 37.6689 36.9175 37.2104 36.9175 37.2104V37.3414C36.9175 37.3414 36.9751 36.2606 37.2339 35.1306C37.3633 34.5738 37.5503 34.0171 37.7228 33.7059C37.8091 33.5258 37.8091 33.5749 37.8379 33.5258C38.1542 33.7878 38.6719 34.3937 39.2184 35.1634C40.34 36.6864 41.6055 38.7989 43.3742 40.2564C44.6541 41.2881 45.862 41.7466 46.7823 41.9104C47.4007 42.025 47.8465 42.0086 48.1484 41.9759L54.4038 41.8449H54.4613C54.4613 41.8449 55.7555 41.8121 57.0497 40.8787C57.6825 40.4201 58.4159 39.585 58.6603 38.3895C58.9192 37.194 58.6316 35.9003 58.0276 34.7049C58.2289 35.1143 57.9845 34.5738 57.7975 34.1481C57.6106 33.7223 57.323 33.1491 56.8916 32.4286C56.0575 31.0202 54.677 29.0387 52.3906 26.5168C51.3121 25.3377 50.6218 24.6826 50.1904 24.2241C50.3198 24.0112 50.3342 23.9948 50.8231 23.3398C51.5997 22.3081 52.7357 20.7851 54.1737 18.5088C55.8993 15.7576 57.1504 13.5141 57.9557 11.6472C58.761 9.79669 59.4081 8.25732 58.6891 6.35769C58.3008 5.32599 57.6106 4.93296 57.1073 4.68732C56.5896 4.44168 56.1294 4.34342 55.698 4.26154C54.8496 4.11415 54.1018 4.11415 54.1018 4.11415L46.8111 4.17966C46.5954 4.13053 45.7613 3.95039 44.6828 4.73645C43.6187 5.48975 43.3742 6.29218 43.3167 6.53783C43.1441 6.81622 41.9362 8.76499 40.2537 12.1712C38.5569 15.6102 37.4065 16.5437 37.2627 16.6256C37.2195 16.5764 37.3058 16.5928 37.1045 16.4618C37.0182 16.3799 36.9319 16.3144 36.86 15.4301C36.8025 14.5458 36.8744 13.1538 36.8744 11.5162C36.8744 7.99531 37.1476 6.16117 36.9895 4.40893C36.9176 3.52461 36.6012 2.44378 35.9109 1.72323C35.2207 1.01906 34.4729 0.757038 33.6964 0.527769C32.4741 0.18387 30.8204 0.0364857 28.4333 0.00373129ZM28.4045 4.19603C30.6334 4.22879 32.2009 4.4253 32.7761 4.58906C33.265 4.73645 33.3369 4.80195 33.3225 4.7692C33.3225 4.80195 33.3225 4.78557 33.3225 4.8347C33.38 5.53888 33.1931 7.79879 33.1931 11.5162C33.1931 12.9737 33.0924 14.382 33.1931 15.7904C33.2938 17.1987 33.7395 18.9182 35.0481 19.9335H35.0625C34.9043 19.8189 36.7162 21.3583 38.4418 20.6541C40.1675 19.9335 41.5336 18.1322 43.4749 14.2183C45.1718 10.7465 46.4228 8.79774 46.4228 8.79774L46.5379 8.60123L46.6241 8.40471C46.6241 8.40471 46.5954 8.38833 46.6241 8.37196L54.1018 8.30645C54.1018 8.30645 54.6195 8.30645 55.1228 8.40471C55.1372 8.40471 55.1516 8.40471 55.1659 8.40471C55.094 8.43746 55.1516 8.65035 54.6483 9.81306C54.0012 11.3033 52.8364 13.4322 51.1826 16.0688C49.8165 18.214 48.7955 19.606 48.0334 20.6213C47.2713 21.6203 46.696 22.0952 46.3222 23.4053C46.1352 24.044 46.1784 24.9938 46.4516 25.6325C46.7104 26.2547 47.0268 26.5986 47.3432 26.9425C47.9759 27.6303 48.7236 28.3018 49.8165 29.53C51.9592 31.8881 53.1671 33.624 53.843 34.7704C54.1881 35.3599 54.3894 35.7693 54.5188 36.0641C54.6483 36.3588 54.562 36.2442 54.8496 36.801C55.094 37.3087 55.0509 37.3742 55.0509 37.3414C54.8064 37.5052 54.1881 37.6526 54.1737 37.6526L47.9184 37.7836L47.7458 37.8327C47.7458 37.8327 47.7602 37.8491 47.3719 37.7836C46.9693 37.7017 46.3365 37.5052 45.5313 36.8501C44.539 36.0477 43.288 34.1808 42.0513 32.4777C41.4473 31.6425 40.8289 30.8237 40.0524 30.1686C39.2759 29.5136 38.0536 28.9077 36.8025 29.3826C35.724 29.7756 35.0194 30.6763 34.5736 31.5115C34.1278 32.3631 33.869 33.2474 33.6676 34.0498C33.2938 35.671 33.2362 37.1285 33.2362 37.1285V37.2595C33.2362 37.2595 33.2362 37.3578 33.2075 37.5052C33.1356 37.5379 33.0349 37.6198 32.9774 37.6526H28.5771C28.5771 37.6526 22.4943 38.0128 16.5265 30.6436C10.1417 22.7011 4.46158 9.42003 3.98704 8.30645H11.3928C11.4647 8.33921 11.7235 8.45384 11.6948 8.43746C11.5222 8.2737 11.7811 8.63398 11.7811 8.63398L11.8961 8.94513L12.0974 9.20715C12.0974 9.20715 13.2335 10.7793 14.8584 14.12C16.5984 17.7064 18.0652 19.5733 19.7045 20.474C21.3439 21.3746 23.0695 20.736 23.8029 20.2611C25.169 19.3604 25.3272 18.0994 25.5572 16.9367C25.7873 15.774 25.8592 14.5294 25.9024 13.3176C25.9886 10.9921 25.8736 9.01063 25.8736 8.86325C25.8592 8.81412 25.8592 8.24095 25.7154 7.61866C25.5572 6.97998 25.2696 6.1448 24.7232 5.26049C24.4931 4.90021 24.2774 5.08035 24.0329 4.81833C25.0539 4.49081 26.1468 4.16328 28.4045 4.19603Z" fill="black"/>
</svg>
